<svg id="Capa_1" enable-background="new 0 0 512 512" height="512" viewBox="0 0 512 512" width="512" xmlns="http://www.w3.org/2000/svg"><g><path d="m151 181h30v90h-30z"/><path d="m91 181h30v90h-30z"/><path d="m271 181h30v90h-30z"/><path d="m211 181h30v90h-30z"/><path d="m391 181h30v90h-30z"/><path d="m331 181h30v90h-30z"/><path d="m0 172.213 4.393 4.393c10.694 10.694 10.694 28.094 0 38.787l-4.393 4.394v111.213h30v60h151v-60h30v60h271v-60h30v-111.213l-4.394-4.393c-10.693-10.694-10.693-28.094 0-38.787l4.394-4.393v-51.214h-512zm151 188.787h-91v-30h91zm301 0h-211v-30h211zm-422-129.318c16.531-20.818 16.531-50.546 0-71.364v-9.318h452v9.318c-16.531 20.818-16.531 50.546 0 71.364v69.318h-452z"/></g></svg>